<?xml version="1.0" encoding="UTF-8" standalone="no"?>
<svg
   viewBox="0 0 32 32"
   width="32"
   height="32"
   version="1.1"
   id="svg1"
   sodipodi:docname="Joker.svg"
   xml:space="preserve"
   inkscape:version="1.3.2 (091e20e, 2023-11-25)"
   xmlns:inkscape="http://www.inkscape.org/namespaces/inkscape"
   xmlns:sodipodi="http://sodipodi.sourceforge.net/DTD/sodipodi-0.dtd"
   xmlns="http://www.w3.org/2000/svg"
   xmlns:svg="http://www.w3.org/2000/svg"><sodipodi:namedview
     id="namedview1"
     pagecolor="#ffffff"
     bordercolor="#000000"
     borderopacity="0.25"
     inkscape:showpageshadow="2"
     inkscape:pageopacity="0.0"
     inkscape:pagecheckerboard="0"
     inkscape:deskcolor="#d1d1d1"
     inkscape:zoom="22.303606"
     inkscape:cx="16.00638"
     inkscape:cy="18.068827"
     inkscape:window-width="1600"
     inkscape:window-height="787"
     inkscape:window-x="0"
     inkscape:window-y="25"
     inkscape:window-maximized="1"
     inkscape:current-layer="svg1" /><defs
     id="defs1" /><path
     style="fill:#000000;fill-opacity:1;stroke:none;stroke-width:1.51181;stroke-linejoin:round"
     d="M 3.4092299,13.162697 C 3.7761404,7.2466196 8.9788234,6.3056086 12.227184,7.4849579 13.473218,0.84418079 23.259149,-0.22819928 25.031194,4.8060331 23.800403,4.2253766 19.977577,2.8982773 19.30862,7.0715228 c 3.442705,-0.2995346 7.065351,1.0530883 8.048852,5.0819412 -3.251994,-1.562035 -5.681383,-0.245938 -4.950454,4.91855 l -0.842821,0.08967 c -0.151382,-1.777359 0.261778,-4.345076 -0.461291,-5.322072 -2.665567,2.030999 -5.607567,3.232623 -9.91082,0.310831 -1.022849,0.301776 -0.440355,3.35557 -0.656584,5.040125 L 9.8720227,17.11685 C 9.2811653,10.057518 6.3713623,11.131385 3.4092299,13.162697 Z"
     id="path1"
     sodipodi:nodetypes="cccccccccccc" /><path
     style="fill:#000000;fill-opacity:1;stroke:none;stroke-width:1.51181;stroke-linejoin:round"
     d="m 5.5880675,25.966707 c 0.6510513,-1.555398 2.5019934,-3.525402 5.5561635,-4.271022 3.471373,4.307142 6.728323,4.540255 9.721564,-0.237112 2.975125,0.923069 4.983925,2.620733 5.825178,4.610738 -1.710204,-0.702432 -3.706869,-2.435261 -6.017453,-1.483455 1.851921,1.685217 2.330966,3.403163 2.297393,4.77413 C 19.132465,25.90744 14.905684,24.108686 9.3370126,29.254363 8.6385762,27.497937 10.12058,25.992828 11.249855,24.54102 10.24333,23.884282 7.0604721,25.379365 5.5880675,25.966707 Z"
     id="path2"
     sodipodi:nodetypes="ccccccccc" /><path
     style="fill:#ff0900;fill-opacity:1;fill-rule:evenodd;stroke:none;stroke-width:0.412;stroke-linejoin:miter;stroke-dasharray:none;stroke-opacity:1"
     d="m 12.733368,19.907094 c 1.496685,4.797953 4.944444,5.419428 6.815041,0.04483 -2.071461,1.728593 -4.266313,2.162679 -6.815041,-0.04483 z"
     id="path3"
     sodipodi:nodetypes="ccc" /><circle
     style="fill:#000000;fill-opacity:1;stroke:none;stroke-width:0.334377;stroke-linejoin:miter;stroke-dasharray:none;stroke-opacity:1"
     id="path4"
     cx="3.3626852"
     cy="14.481964"
     r="1.2554023" /><ellipse
     style="fill:#000000;fill-opacity:1;stroke:none;stroke-width:0.256684;stroke-linejoin:miter;stroke-dasharray:none;stroke-opacity:1"
     id="path4-3"
     cx="13.536412"
     cy="17.393908"
     rx="0.98638749"
     ry="0.94155169" /><ellipse
     style="fill:#000000;fill-opacity:1;stroke:none;stroke-width:0.256684;stroke-linejoin:miter;stroke-dasharray:none;stroke-opacity:1"
     id="path4-3-5"
     cx="18.694147"
     cy="17.434746"
     rx="0.98638749"
     ry="0.94155169" /><circle
     style="fill:#000000;fill-opacity:1;stroke:none;stroke-width:0.334377;stroke-linejoin:miter;stroke-dasharray:none;stroke-opacity:1"
     id="path4-2"
     cx="24.955929"
     cy="5.8711081"
     r="1.2554023" /><circle
     style="fill:#000000;fill-opacity:1;stroke:none;stroke-width:0.334377;stroke-linejoin:miter;stroke-dasharray:none;stroke-opacity:1"
     id="path4-9"
     cx="27.469967"
     cy="13.294622"
     r="1.2554023" /><path
     style="fill:#ffffff;fill-opacity:1;fill-rule:evenodd;stroke:none;stroke-width:0.412;stroke-linejoin:miter;stroke-dasharray:none;stroke-opacity:1"
     d="m 13.585247,21.162497 c 1.462636,2.800207 3.813016,2.2488 5.156117,0.04484 -1.378806,0.747551 -3.661144,0.985559 -5.156117,-0.04484 z"
     id="path5"
     sodipodi:nodetypes="ccc" /></svg>
